<?xml version="1.0" encoding="UTF-8" ?>
<!DOCTYPE svg PUBLIC "-//W3C//DTD SVG 1.1//EN" "http://www.w3.org/Graphics/SVG/1.1/DTD/svg11.dtd">
<svg width="362pt" height="362pt" viewBox="0 0 362 362" version="1.1" xmlns="http://www.w3.org/2000/svg">
<g id="#132333ff">
</g>
<g id="#fdfdfdff">
<path fill="#fdfdfd" opacity="1.00" d=" M 157.05 48.80 C 165.61 41.66 173.69 33.92 182.69 27.32 C 217.88 56.40 252.44 86.25 287.45 115.55 C 298.94 125.76 310.95 135.35 322.51 145.48 C 324.93 147.49 326.43 150.82 325.03 153.88 C 324.01 156.75 320.93 158.40 317.96 158.05 C 310.61 157.45 303.22 158.21 295.89 157.67 C 280.70 144.31 264.79 131.77 249.60 118.39 C 227.29 99.79 205.04 81.09 182.95 62.23 C 182.59 62.29 181.86 62.41 181.49 62.47 C 145.42 93.75 109.04 124.68 72.83 155.81 C 71.68 156.60 70.65 157.98 69.09 157.81 C 62.02 157.77 54.96 157.75 47.90 157.88 C 43.17 158.20 40.49 152.20 42.42 148.32 C 43.70 145.75 46.17 144.14 48.26 142.30 C 84.55 111.17 120.72 79.88 157.05 48.80 Z" />
</g>
<g id="#fcfdfdff">
<path fill="#fcfdfd" opacity="1.00" d=" M 89.41 52.70 C 91.21 49.63 94.17 46.39 98.06 46.72 C 104.92 46.81 111.77 46.77 118.63 46.85 C 118.56 53.67 118.51 60.50 118.63 67.32 C 108.92 76.33 98.82 84.91 88.91 93.71 C 88.93 93.13 88.97 91.95 88.99 91.36 C 89.36 78.48 88.54 65.55 89.41 52.70 Z" />
</g>
<g id="#a9b4beff">
<path fill="#a9b4be" opacity="1.00" d=" M 249.56 46.88 C 257.39 47.08 265.25 46.56 273.07 47.03 C 276.83 48.87 279.87 52.63 279.69 56.99 C 279.75 69.28 279.99 81.57 279.82 93.86 C 269.76 85.62 259.86 77.19 250.04 68.68 C 249.06 61.51 249.82 54.13 249.56 46.88 Z" />
</g>
<g id="#081115ff">
</g>
<g id="#6f5296ff">
<path fill="#6f5296" opacity="1.00" d=" M 172.35 101.89 C 174.99 99.67 177.51 96.97 181.06 96.31 C 184.27 95.47 187.20 97.50 189.52 99.47 C 198.00 106.62 206.81 113.38 215.36 120.46 C 212.80 121.51 209.01 122.55 209.01 125.95 C 209.51 130.46 209.73 135.01 210.41 139.49 C 211.77 140.37 213.26 141.00 214.71 141.70 C 215.00 145.35 214.60 149.09 215.40 152.69 C 216.81 154.60 218.97 155.78 220.60 157.49 C 221.11 159.33 220.48 161.29 220.36 163.16 C 225.42 166.95 228.92 172.82 229.92 179.05 C 230.02 181.54 232.37 182.75 234.02 184.20 C 232.73 185.32 231.45 186.45 230.17 187.58 C 232.58 189.59 235.58 189.06 238.35 188.31 C 238.66 189.99 238.98 191.66 239.30 193.34 C 240.46 193.36 241.62 193.38 242.78 193.41 C 242.35 194.84 241.91 196.28 241.48 197.72 C 244.60 199.62 246.74 202.55 247.28 206.21 C 242.86 202.16 238.87 197.65 234.19 193.86 C 226.54 187.58 218.09 182.23 209.04 178.18 C 209.16 177.71 209.39 176.78 209.50 176.31 C 206.11 175.06 202.74 173.77 199.38 172.45 C 199.31 169.95 199.33 167.44 199.00 164.96 C 198.12 159.76 194.62 155.42 193.61 150.27 C 194.50 149.18 195.57 148.24 196.60 147.28 C 196.67 141.69 196.55 136.10 196.53 130.50 C 192.19 130.43 187.85 130.29 183.52 130.50 C 183.50 130.73 183.47 131.20 183.45 131.44 C 182.37 131.29 181.32 131.02 180.24 130.87 C 178.17 128.87 176.33 126.51 176.21 123.50 C 175.29 122.55 174.38 121.61 173.46 120.67 C 174.88 117.35 175.54 113.75 175.52 110.14 C 175.80 107.04 173.67 104.50 172.35 101.89 Z" />
</g>
<g id="#5d5390ff">
<path fill="#5d5390" opacity="1.00" d=" M 166.79 106.47 C 168.60 104.89 170.46 103.38 172.35 101.89 C 173.67 104.50 175.80 107.04 175.52 110.14 C 175.54 113.75 174.88 117.35 173.46 120.67 C 174.38 121.61 175.29 122.55 176.21 123.50 C 176.33 126.51 178.17 128.87 180.24 130.87 C 181.32 131.02 182.37 131.29 183.45 131.44 C 183.25 136.76 183.34 142.08 183.54 147.40 C 187.89 147.33 192.24 147.36 196.60 147.28 C 195.57 148.24 194.50 149.18 193.61 150.27 C 194.62 155.42 198.12 159.76 199.00 164.96 C 199.33 167.44 199.31 169.95 199.38 172.45 C 202.74 173.77 206.11 175.06 209.50 176.31 C 209.39 176.78 209.16 177.71 209.04 178.18 C 203.22 175.67 197.27 173.37 191.11 171.82 C 188.68 171.19 186.01 171.20 183.88 169.76 C 180.82 167.64 176.96 167.53 173.55 166.25 C 175.19 165.12 176.84 164.01 178.50 162.93 C 173.84 158.95 176.39 152.59 177.15 147.47 C 177.48 141.80 177.21 136.10 177.18 130.42 C 172.74 130.20 168.30 130.40 163.85 130.37 C 162.63 130.20 161.41 129.96 160.20 129.74 C 159.99 125.74 159.24 121.64 160.09 117.68 C 160.93 115.80 162.80 114.65 164.04 113.06 C 165.77 111.28 166.16 108.76 166.79 106.47 Z" />
</g>
<g id="#4f538aff">
<path fill="#4f538a" opacity="1.00" d=" M 148.95 121.97 C 154.95 116.85 160.56 111.30 166.79 106.47 C 166.16 108.76 165.77 111.28 164.04 113.06 C 162.80 114.65 160.93 115.80 160.09 117.68 C 159.24 121.64 159.99 125.74 160.20 129.74 C 161.41 129.96 162.63 130.20 163.85 130.37 C 163.91 136.04 163.84 141.71 164.12 147.38 C 168.46 147.31 172.81 147.36 177.15 147.47 C 176.39 152.59 173.84 158.95 178.50 162.93 C 176.84 164.01 175.19 165.12 173.55 166.25 C 176.96 167.53 180.82 167.64 183.88 169.76 C 172.70 169.37 161.58 167.32 150.37 168.60 C 145.12 168.62 139.77 166.89 136.39 162.72 C 135.96 159.29 136.20 155.81 135.99 152.37 C 134.84 151.05 132.92 150.00 133.06 147.99 C 132.93 143.17 134.13 138.42 135.48 133.82 C 139.53 129.47 144.60 126.07 148.95 121.97 Z" />
</g>
<g id="#7c4e9dff">
<path fill="#7c4e9d" opacity="1.00" d=" M 209.01 125.95 C 209.01 122.55 212.80 121.51 215.36 120.46 C 219.33 123.51 223.24 126.65 227.07 129.89 C 230.30 132.61 233.91 134.93 236.62 138.21 C 234.18 137.82 232.07 136.59 230.38 134.83 C 229.25 135.70 228.09 136.53 226.97 137.42 C 228.90 137.93 230.85 138.41 232.80 138.87 C 229.59 142.10 229.05 147.05 230.73 151.18 C 231.95 154.14 235.21 155.79 236.01 158.98 C 236.82 161.88 238.71 164.24 240.34 166.71 C 242.14 169.17 241.34 172.35 241.92 175.16 C 243.56 177.62 246.03 179.51 247.10 182.37 C 245.84 182.78 244.59 183.21 243.33 183.63 C 246.95 191.14 251.00 198.64 256.83 204.68 C 257.09 195.39 257.83 186.11 258.31 176.83 C 258.92 191.99 258.20 207.19 258.72 222.35 C 255.23 216.75 250.92 211.66 247.28 206.21 C 246.74 202.55 244.60 199.62 241.48 197.72 C 241.91 196.28 242.35 194.84 242.78 193.41 C 241.62 193.38 240.46 193.36 239.30 193.34 C 238.98 191.66 238.66 189.99 238.35 188.31 C 235.58 189.06 232.58 189.59 230.17 187.58 C 231.45 186.45 232.73 185.32 234.02 184.20 C 232.37 182.75 230.02 181.54 229.92 179.05 C 228.92 172.82 225.42 166.95 220.36 163.16 C 220.48 161.29 221.11 159.33 220.60 157.49 C 218.97 155.78 216.81 154.60 215.40 152.69 C 214.60 149.09 215.00 145.35 214.71 141.70 C 213.26 141.00 211.77 140.37 210.41 139.49 C 209.73 135.01 209.51 130.46 209.01 125.95 Z" />
</g>
<g id="#142538ff">
</g>
<g id="#142536ff">
</g>
<g id="#3e5285ff">
<path fill="#3e5285" opacity="1.00" d=" M 124.08 143.09 C 127.87 139.99 131.33 136.45 135.48 133.82 C 134.13 138.42 132.93 143.17 133.06 147.99 C 132.92 150.00 134.84 151.05 135.99 152.37 C 136.20 155.81 135.96 159.29 136.39 162.72 C 139.77 166.89 145.12 168.62 150.37 168.60 C 145.96 169.56 141.38 169.08 136.96 170.06 C 131.84 171.13 126.63 171.89 121.65 173.53 C 119.99 173.99 118.35 174.72 116.60 174.63 C 114.46 174.36 112.38 174.90 110.44 175.78 C 110.96 174.54 111.47 173.30 111.97 172.06 C 110.61 171.76 109.26 171.44 107.91 171.12 C 106.95 166.76 110.67 164.26 112.75 161.08 C 112.03 159.92 111.18 158.85 110.36 157.77 C 112.79 154.60 116.18 152.24 118.13 148.70 C 119.70 146.44 122.09 144.95 124.08 143.09 Z" />
</g>
<g id="#874ca0ff">
<path fill="#874ca0" opacity="1.00" d=" M 226.97 137.42 C 228.09 136.53 229.25 135.70 230.38 134.83 C 232.07 136.59 234.18 137.82 236.62 138.21 C 240.88 140.43 244.10 144.26 248.05 147.01 C 252.58 150.59 258.46 154.59 258.29 161.09 C 258.27 166.33 258.53 171.59 258.31 176.83 C 257.83 186.11 257.09 195.39 256.83 204.68 C 251.00 198.64 246.95 191.14 243.33 183.63 C 244.59 183.21 245.84 182.78 247.10 182.37 C 246.03 179.51 243.56 177.62 241.92 175.16 C 241.34 172.35 242.14 169.17 240.34 166.71 C 238.71 164.24 236.82 161.88 236.01 158.98 C 235.21 155.79 231.95 154.14 230.73 151.18 C 229.05 147.05 229.59 142.10 232.80 138.87 C 230.85 138.41 228.90 137.93 226.97 137.42 Z" />
</g>
<g id="#354e7aff">
<path fill="#354e7a" opacity="1.00" d=" M 107.94 156.03 C 111.34 153.59 114.32 150.53 118.13 148.70 C 116.18 152.24 112.79 154.60 110.36 157.77 C 111.18 158.85 112.03 159.92 112.75 161.08 C 110.67 164.26 106.95 166.76 107.91 171.12 C 109.26 171.44 110.61 171.76 111.97 172.06 C 111.47 173.30 110.96 174.54 110.44 175.78 C 112.38 174.90 114.46 174.36 116.60 174.63 C 107.07 179.00 96.93 182.13 87.81 187.45 C 87.26 186.76 86.71 186.08 86.17 185.40 C 85.15 185.46 84.15 185.60 83.13 185.68 C 84.76 183.87 86.34 182.02 87.86 180.13 C 87.27 178.38 86.42 176.65 86.45 174.77 C 87.28 173.11 88.89 172.01 90.15 170.68 C 90.21 170.15 90.34 169.09 90.41 168.55 C 96.22 164.36 102.28 160.45 107.94 156.03 Z" />
</g>
<g id="#fdfcfdff">
<path fill="#fdfcfd" opacity="1.00" d=" M 301.65 161.33 C 302.14 190.74 301.76 220.17 301.86 249.59 C 294.55 249.54 287.24 249.45 279.94 249.57 C 279.37 227.74 280.05 205.90 279.66 184.06 C 279.86 182.08 279.04 179.40 281.12 178.18 C 287.97 172.58 294.63 166.72 301.65 161.33 Z" />
</g>
<g id="#2c446cff">
<path fill="#2c446c" opacity="1.00" d=" M 80.93 173.87 C 84.02 171.98 87.02 169.90 90.41 168.55 C 90.34 169.09 90.21 170.15 90.15 170.68 C 88.89 172.01 87.28 173.11 86.45 174.77 C 86.42 176.65 87.27 178.38 87.86 180.13 C 86.34 182.02 84.76 183.87 83.13 185.68 C 84.15 185.60 85.15 185.46 86.17 185.40 C 86.71 186.08 87.26 186.76 87.81 187.45 C 81.38 191.42 74.81 195.20 68.62 199.55 C 67.16 200.61 65.57 201.47 63.91 202.16 C 63.40 196.75 63.66 191.31 63.38 185.89 C 68.78 181.27 75.01 177.77 80.93 173.87 Z" />
</g>
<g id="#adeeffff">
<path fill="#adeeff" opacity="1.00" d=" M 135.84 188.44 C 149.88 184.57 164.60 184.19 179.04 185.46 C 202.25 188.45 224.28 199.68 240.38 216.65 C 248.30 224.77 255.14 234.16 259.24 244.80 C 259.73 246.23 259.84 247.75 260.06 249.25 C 257.98 249.58 255.88 249.68 253.78 249.63 C 253.56 249.23 253.13 248.43 252.92 248.03 C 250.45 243.68 246.93 240.05 243.51 236.44 C 226.46 218.06 203.34 204.36 178.06 202.00 C 167.52 200.39 156.79 201.11 146.27 202.49 C 146.46 199.29 145.99 195.97 146.95 192.88 C 148.72 191.64 150.72 190.80 152.63 189.82 C 151.68 188.68 150.69 187.34 148.99 187.78 C 144.92 187.85 140.95 189.80 136.87 188.91 L 135.84 188.44 Z" />
</g>
<g id="#98e9feff">
<path fill="#98e9fe" opacity="1.00" d=" M 136.87 188.91 C 140.95 189.80 144.92 187.85 148.99 187.78 C 150.69 187.34 151.68 188.68 152.63 189.82 C 150.72 190.80 148.72 191.64 146.95 192.88 C 145.99 195.97 146.46 199.29 146.27 202.49 C 138.44 203.54 130.75 205.50 123.27 208.00 C 121.27 208.65 119.29 209.39 117.36 210.23 C 116.42 208.76 115.49 207.29 114.56 205.82 C 116.41 204.76 118.30 203.79 120.24 202.90 C 118.79 202.36 117.34 201.82 115.90 201.28 C 117.80 198.36 120.03 195.67 122.12 192.89 C 126.74 190.87 131.77 188.84 136.87 188.91 Z" />
</g>
<g id="#8ae1fcff">
<path fill="#8ae1fc" opacity="1.00" d=" M 99.77 203.77 C 106.89 199.54 114.16 195.32 122.12 192.89 C 120.03 195.67 117.80 198.36 115.90 201.28 C 117.34 201.82 118.79 202.36 120.24 202.90 C 118.30 203.79 116.41 204.76 114.56 205.82 C 115.49 207.29 116.42 208.76 117.36 210.23 C 113.51 211.91 109.68 213.64 106.00 215.67 C 102.20 212.79 102.48 207.45 99.77 203.77 Z" />
</g>
<g id="#387caeff">
<path fill="#387cae" opacity="1.00" d=" M 146.27 202.49 C 156.79 201.11 167.52 200.39 178.06 202.00 C 203.34 204.36 226.46 218.06 243.51 236.44 C 246.93 240.05 250.45 243.68 252.92 248.03 C 252.89 248.46 252.83 249.32 252.81 249.74 C 247.22 249.55 241.64 249.87 236.06 249.87 L 236.86 249.73 L 238.06 249.53 C 224.74 233.52 205.29 222.96 184.88 219.26 C 176.21 217.76 167.34 217.79 158.59 218.43 C 156.09 218.59 153.59 218.89 151.12 219.35 C 151.55 217.88 151.98 216.41 152.42 214.94 C 145.65 217.11 138.43 216.26 131.43 216.63 C 131.05 215.72 130.67 214.82 130.29 213.91 C 132.33 212.58 134.32 211.17 136.22 209.65 C 132.40 206.70 127.48 209.90 123.27 208.00 C 130.75 205.50 138.44 203.54 146.27 202.49 Z" />
</g>
<g id="#7dddf9ff">
<path fill="#7dddf9" opacity="1.00" d=" M 84.61 214.51 C 89.38 210.56 94.50 207.02 99.77 203.77 C 102.48 207.45 102.20 212.79 106.00 215.67 C 105.72 215.83 105.17 216.13 104.89 216.28 C 100.50 218.75 96.26 221.49 92.19 224.46 C 90.59 223.91 89.21 223.00 88.88 221.23 C 87.69 220.12 86.76 218.79 85.99 217.36 C 87.71 216.25 89.42 215.11 91.08 213.92 C 88.91 213.86 86.74 214.09 84.61 214.51 Z" />
</g>
<g id="#2f83baff">
<path fill="#2f83ba" opacity="1.00" d=" M 117.36 210.23 C 119.29 209.39 121.27 208.65 123.27 208.00 C 127.48 209.90 132.40 206.70 136.22 209.65 C 134.32 211.17 132.33 212.58 130.29 213.91 C 130.67 214.82 131.05 215.72 131.43 216.63 C 138.43 216.26 145.65 217.11 152.42 214.94 C 151.98 216.41 151.55 217.88 151.12 219.35 C 142.26 220.65 133.69 223.36 125.52 226.99 C 121.92 223.50 116.99 225.79 112.83 226.65 C 111.54 226.74 109.56 227.52 108.78 226.06 C 110.88 225.18 113.08 224.55 115.18 223.64 C 111.52 222.76 107.82 222.05 104.15 221.22 C 104.96 220.35 105.77 219.49 106.58 218.62 C 106.02 217.84 105.45 217.06 104.89 216.28 C 105.17 216.13 105.72 215.83 106.00 215.67 C 109.68 213.64 113.51 211.91 117.36 210.23 Z" />
</g>
<g id="#6ed6f6ff">
<path fill="#6ed6f6" opacity="1.00" d=" M 84.61 214.51 C 86.74 214.09 88.91 213.86 91.08 213.92 C 89.42 215.11 87.71 216.25 85.99 217.36 C 86.76 218.79 87.69 220.12 88.88 221.23 C 89.21 223.00 90.59 223.91 92.19 224.46 C 87.67 227.68 83.42 231.26 79.27 234.95 C 78.05 234.84 76.84 234.75 75.62 234.65 C 75.67 232.57 76.22 230.39 75.54 228.37 C 73.63 226.34 70.62 228.53 68.41 228.96 C 73.42 223.84 78.80 219.13 84.32 214.56 L 84.61 214.51 Z" />
</g>
<g id="#2a89c0ff">
<path fill="#2a89c0" opacity="1.00" d=" M 92.19 224.46 C 96.26 221.49 100.50 218.75 104.89 216.28 C 105.45 217.06 106.02 217.84 106.58 218.62 C 105.77 219.49 104.96 220.35 104.15 221.22 C 107.82 222.05 111.52 222.76 115.18 223.64 C 113.08 224.55 110.88 225.18 108.78 226.06 C 109.56 227.52 111.54 226.74 112.83 226.65 C 116.99 225.79 121.92 223.50 125.52 226.99 C 122.47 228.50 119.49 230.16 116.53 231.84 C 108.07 236.77 100.45 242.98 93.33 249.67 C 83.62 249.82 73.90 249.77 64.19 249.83 L 64.33 249.69 C 69.20 244.66 74.03 239.59 79.27 234.95 C 83.42 231.26 87.67 227.68 92.19 224.46 Z" />
</g>
<g id="#a1ebfeff">
<path fill="#a1ebfe" opacity="1.00" d=" M 158.59 218.43 C 167.34 217.79 176.21 217.76 184.88 219.26 C 205.29 222.96 224.74 233.52 238.06 249.53 L 236.86 249.73 L 235.47 248.75 C 215.69 233.13 189.64 225.69 164.61 228.71 C 157.21 229.67 149.88 231.20 142.78 233.48 C 141.63 232.16 140.52 230.80 139.44 229.43 C 140.72 227.82 142.00 226.21 143.29 224.60 C 148.96 225.00 155.05 223.08 158.59 218.43 Z" />
</g>
<g id="#90e4feff">
<path fill="#90e4fe" opacity="1.00" d=" M 151.12 219.35 C 153.59 218.89 156.09 218.59 158.59 218.43 C 155.05 223.08 148.96 225.00 143.29 224.60 C 142.00 226.21 140.72 227.82 139.44 229.43 C 140.52 230.80 141.63 232.16 142.78 233.48 C 132.61 237.02 122.94 242.06 114.40 248.63 C 112.50 242.70 119.20 237.70 116.53 231.84 C 119.49 230.16 122.47 228.50 125.52 226.99 C 133.69 223.36 142.26 220.65 151.12 219.35 Z" />
</g>
<g id="#5ed3f5ff">
<path fill="#5ed3f5" opacity="1.00" d=" M 68.41 228.96 C 70.62 228.53 73.63 226.34 75.54 228.37 C 76.22 230.39 75.67 232.57 75.62 234.65 C 76.84 234.75 78.05 234.84 79.27 234.95 C 74.03 239.59 69.20 244.66 64.33 249.69 C 62.49 244.84 63.67 239.46 63.14 234.39 C 64.99 232.67 66.60 230.72 68.41 228.96 Z" />
</g>
<g id="#316a99ff">
<path fill="#316a99" opacity="1.00" d=" M 164.61 228.71 C 189.64 225.69 215.69 233.13 235.47 248.75 C 233.78 248.47 232.11 248.08 230.51 247.49 C 220.31 243.89 209.78 241.02 199.02 239.84 C 189.21 239.51 179.22 239.09 169.62 241.51 C 161.75 243.17 154.32 246.33 146.97 249.46 C 135.68 250.19 124.35 249.48 113.04 249.65 C 113.49 249.31 113.95 248.97 114.40 248.63 C 122.94 242.06 132.61 237.02 142.78 233.48 C 149.88 231.20 157.21 229.67 164.61 228.71 Z" />
</g>
<g id="#82defbff">
<path fill="#82defb" opacity="1.00" d=" M 93.33 249.67 C 100.45 242.98 108.07 236.77 116.53 231.84 C 119.20 237.70 112.50 242.70 114.40 248.63 C 113.95 248.97 113.49 249.31 113.04 249.65 C 106.47 249.70 99.90 249.67 93.33 249.67 Z" />
</g>
<g id="#fbfcfdff">
<path fill="#fbfcfd" opacity="1.00" d=" M 136.69 279.69 C 144.27 275.67 154.18 277.17 160.56 282.80 C 158.68 284.94 156.66 287.00 155.18 289.46 C 150.89 287.42 146.00 285.50 141.27 287.20 C 140.03 288.91 139.19 292.22 141.66 293.23 C 146.43 295.64 152.27 295.90 156.39 299.61 C 161.73 303.90 161.61 312.44 157.36 317.43 C 154.81 319.89 151.60 321.88 147.99 322.09 C 141.00 322.77 132.91 321.11 128.15 315.68 C 129.42 313.32 131.43 311.41 132.93 309.19 C 137.01 311.33 141.22 314.10 146.05 313.69 C 148.07 313.58 149.56 311.97 151.18 310.94 C 151.49 307.85 149.07 305.37 146.19 304.75 C 140.66 303.41 134.38 301.80 131.26 296.55 C 128.11 290.60 131.04 282.96 136.69 279.69 Z" />
</g>
<g id="#fbfcfcff">
<path fill="#fbfcfc" opacity="1.00" d=" M 47.89 278.61 C 53.58 278.64 59.27 278.64 64.96 278.65 C 71.42 278.54 78.14 282.61 79.76 289.11 C 82.02 295.72 78.69 303.51 72.30 306.40 C 75.25 311.70 78.51 316.81 81.93 321.81 C 78.33 321.90 74.73 321.93 71.13 321.92 C 68.10 317.80 65.70 313.26 62.81 309.05 C 61.66 307.07 59.03 308.07 57.18 307.75 C 56.93 312.54 57.11 317.34 56.89 322.13 C 53.91 321.95 50.94 321.89 47.96 321.89 C 47.59 307.46 47.98 293.03 47.89 278.61 M 57.04 288.03 C 56.98 291.53 57.03 295.04 57.08 298.54 C 60.68 298.48 64.31 298.78 67.90 298.30 C 72.05 296.26 71.54 289.35 67.00 288.21 C 63.71 287.73 60.36 288.08 57.04 288.03 Z" />
<path fill="#fbfcfc" opacity="1.00" d=" M 90.86 278.65 C 100.27 278.59 109.68 278.70 119.09 278.62 C 119.15 281.61 119.09 284.60 118.87 287.58 C 112.61 287.72 106.34 287.53 100.09 287.92 C 100.18 290.76 100.22 293.60 100.24 296.44 C 105.71 296.40 111.18 296.37 116.65 296.43 C 116.68 299.23 116.71 302.03 116.70 304.84 C 111.16 304.98 105.62 304.66 100.07 304.84 C 100.08 307.60 100.10 310.36 100.11 313.13 C 106.38 313.06 112.66 313.11 118.93 312.90 C 119.10 315.87 119.11 318.85 119.03 321.83 C 109.64 321.89 100.25 321.81 90.86 321.94 C 90.33 307.52 90.84 293.08 90.86 278.65 Z" />
</g>
<g id="#acb8c0ff">
<path fill="#acb8c0" opacity="1.00" d=" M 169.21 278.73 C 179.76 278.71 190.30 278.71 200.85 278.71 C 200.94 281.68 200.93 284.67 200.76 287.64 C 196.95 287.66 193.15 287.78 189.35 287.99 C 189.80 299.29 189.71 310.60 189.85 321.91 C 186.87 321.95 183.88 321.97 180.90 321.95 C 181.10 310.49 181.11 299.02 181.07 287.56 C 177.13 287.47 173.20 287.38 169.26 287.41 C 169.27 284.51 169.26 281.62 169.21 278.73 Z" />
</g>
<g id="#adb6beff">
<path fill="#adb6be" opacity="1.00" d=" M 205.99 278.71 C 209.61 278.64 213.23 278.59 216.86 278.59 C 220.28 284.44 224.29 289.93 227.60 295.84 C 230.60 289.86 234.46 284.37 237.92 278.66 C 241.44 278.65 244.96 278.66 248.48 278.63 C 243.73 287.94 237.10 296.09 231.86 305.12 C 231.84 310.74 231.99 316.35 231.90 321.97 C 228.96 321.95 226.03 321.94 223.09 321.92 C 223.06 316.92 223.14 311.92 223.16 306.92 C 223.24 305.74 222.97 304.67 222.33 303.70 C 217.12 295.22 211.45 287.03 205.99 278.71 Z" />
</g>
<g id="#aeb9c1ff">
<path fill="#aeb9c1" opacity="1.00" d=" M 257.18 278.73 C 260.13 278.67 263.09 278.64 266.05 278.64 C 266.22 290.10 265.90 301.57 266.08 313.03 C 272.24 313.03 278.40 312.94 284.56 313.05 C 284.49 315.99 284.52 318.93 284.59 321.87 C 275.50 322.03 266.40 321.77 257.31 321.92 C 257.16 307.52 257.21 293.13 257.18 278.73 Z" />
</g>
<g id="#b1bcc2ff">
<path fill="#b1bcc2" opacity="1.00" d=" M 294.60 278.61 C 303.82 278.79 313.04 278.68 322.26 278.71 C 322.30 281.58 322.33 284.46 322.37 287.34 C 316.18 287.47 309.98 287.43 303.80 287.91 C 303.84 290.82 303.88 293.73 303.89 296.64 C 309.15 296.56 314.42 296.53 319.69 296.49 C 319.75 299.26 319.81 302.04 319.85 304.82 C 314.48 304.77 309.12 304.86 303.75 304.78 C 303.77 307.56 303.81 310.35 303.88 313.14 C 310.03 313.22 316.18 313.15 322.33 313.08 C 322.39 316.02 322.52 318.97 322.64 321.92 C 313.30 322.02 303.96 321.71 294.63 321.99 C 294.58 307.53 294.71 293.07 294.60 278.61 Z" />
</g>
<g id="#152435ff">
</g>
</svg>
